# xmcd CD database file
#
# Track frame offsets:
#	150
#	3927
#	52190
#	80746
#	113332
#	167595
#	196592
#	209006
#
# Disc length: 3208 seconds
#
# Revision: 1
# Processed by: cddbd v1.5.2PL0 Copyright (c) Steve Scherf et al.
# Submitted via: CDex 1.51
#
DISCID=600c8608
DTITLE=Carine Bonnefoy - Tribal
DYEAR=2009
DGENRE=Jazz
TTITLE0=I Uta
TTITLE1=Soul Edge
TTITLE2=Tribal Thoughts
TTITLE3=Inner Dance
TTITLE4=Water Slide
TTITLE5=Les Larmes de Noé
TTITLE6=I Tai
TTITLE7=A l'Aube
EXTD=YEAR: 2009
EXTT0=
EXTT1=
EXTT2=
EXTT3=
EXTT4=
EXTT5=
EXTT6=
EXTT7=
PLAYORDER=
